<svg width="1512" height="841" viewBox="0 0 1512 841" fill="none" xmlns="http://www.w3.org/2000/svg">
<path d="M790.537 457.56C904.528 434.386 1007.49 462.698 1119.03 464.467C1277.03 466.974 1487.27 378.874 1585.37 470.17C1679.93 558.169 1620.83 733.789 1543.79 859.768C1473.68 974.435 1244.7 990.363 1194.38 1109.56C1130.41 1261.09 1366.22 1403.47 1256.18 1541.05C1165.74 1654.13 955.841 1605.89 821.474 1575.79C708.08 1550.4 674.703 1433.22 573.703 1388.2C491.064 1351.36 382.997 1367.46 293.634 1340.52C137.514 1293.45 -65.3134 1290.59 -146.838 1170.97C-229.226 1050.09 -261.152 846.24 -127.558 722.529C23.7053 582.455 272.32 653.86 474.638 595.469C586.061 563.312 678.02 480.434 790.537 457.56Z" fill="#E4D8FF"/>
<path d="M790.728 555.896C904.719 532.722 1007.68 561.034 1119.22 562.803C1277.22 565.31 1487.46 477.21 1585.56 568.506C1680.12 656.505 1621.02 832.125 1543.98 958.104C1473.87 1072.77 1244.9 1088.7 1194.57 1207.9C1130.6 1359.43 1366.42 1501.8 1256.37 1639.39C1165.93 1752.46 956.032 1704.22 821.665 1674.13C708.271 1648.73 674.894 1531.55 573.894 1486.53C491.255 1449.7 383.188 1465.8 293.825 1438.86C137.705 1391.79 -65.1224 1388.92 -146.647 1269.31C-229.035 1148.42 -260.961 944.576 -127.367 820.865C23.8962 680.791 272.511 752.196 474.829 693.805C586.252 661.648 678.211 578.77 790.728 555.896Z" fill="#D4C0FF"/>
<path d="M790.728 555.896C904.719 532.722 1007.68 561.034 1119.22 562.803C1277.22 565.31 1487.46 477.21 1585.56 568.506C1680.12 656.505 1621.02 832.125 1543.98 958.104C1473.87 1072.77 1244.9 1088.7 1194.57 1207.9C1130.6 1359.43 1366.42 1501.8 1256.37 1639.39C1165.93 1752.46 956.032 1704.22 821.665 1674.13C708.271 1648.73 674.894 1531.55 573.894 1486.53C491.255 1449.7 383.188 1465.8 293.825 1438.86C137.705 1391.79 -65.1224 1388.92 -146.647 1269.31C-229.035 1148.42 -260.961 944.576 -127.367 820.865C23.8962 680.791 272.511 752.196 474.829 693.805C586.252 661.648 678.211 578.77 790.728 555.896Z" fill="#D4C0FF"/>
<path d="M790.728 555.896C904.719 532.722 1007.68 561.034 1119.22 562.803C1277.22 565.31 1487.46 477.21 1585.56 568.506C1680.12 656.505 1621.02 832.125 1543.98 958.104C1473.87 1072.77 1244.9 1088.7 1194.57 1207.9C1130.6 1359.43 1366.42 1501.8 1256.37 1639.39C1165.93 1752.46 956.032 1704.22 821.665 1674.13C708.271 1648.73 674.894 1531.55 573.894 1486.53C491.255 1449.7 383.188 1465.8 293.825 1438.86C137.705 1391.79 -65.1224 1388.92 -146.647 1269.31C-229.035 1148.42 -260.961 944.576 -127.367 820.865C23.8962 680.791 272.511 752.196 474.829 693.805C586.252 661.648 678.211 578.77 790.728 555.896Z" fill="#D4C0FF"/>
<path d="M790.728 662.896C904.719 639.722 1007.68 668.034 1119.22 669.803C1277.22 672.31 1487.46 584.21 1585.56 675.506C1680.12 763.505 1621.02 939.125 1543.98 1065.1C1473.87 1179.77 1244.9 1195.7 1194.57 1314.9C1130.6 1466.43 1366.42 1608.8 1256.37 1746.39C1165.93 1859.46 956.032 1811.22 821.665 1781.13C708.271 1755.73 674.894 1638.55 573.894 1593.53C491.255 1556.7 383.188 1572.8 293.825 1545.86C137.705 1498.79 -65.1224 1495.92 -146.647 1376.31C-229.035 1255.42 -260.961 1051.58 -127.367 927.865C23.8962 787.791 272.511 859.196 474.829 800.805C586.252 768.648 678.211 685.77 790.728 662.896Z" fill="#D4C0FF"/>
<path d="M790.728 662.896C904.719 639.722 1007.68 668.034 1119.22 669.803C1277.22 672.31 1487.46 584.21 1585.56 675.506C1680.12 763.505 1621.02 939.125 1543.98 1065.1C1473.87 1179.77 1244.9 1195.7 1194.57 1314.9C1130.6 1466.43 1366.42 1608.8 1256.37 1746.39C1165.93 1859.46 956.032 1811.22 821.665 1781.13C708.271 1755.73 674.894 1638.55 573.894 1593.53C491.255 1556.7 383.188 1572.8 293.825 1545.86C137.705 1498.79 -65.1224 1495.92 -146.647 1376.31C-229.035 1255.42 -260.961 1051.58 -127.367 927.865C23.8962 787.791 272.511 859.196 474.829 800.805C586.252 768.648 678.211 685.77 790.728 662.896Z" fill="#D4C0FF"/>
<path d="M790.728 662.896C904.719 639.722 1007.68 668.034 1119.22 669.803C1277.22 672.31 1487.46 584.21 1585.56 675.506C1680.12 763.505 1621.02 939.125 1543.98 1065.1C1473.87 1179.77 1244.9 1195.7 1194.57 1314.9C1130.6 1466.43 1366.42 1608.8 1256.37 1746.39C1165.93 1859.46 956.032 1811.22 821.665 1781.13C708.271 1755.73 674.894 1638.55 573.894 1593.53C491.255 1556.7 383.188 1572.8 293.825 1545.86C137.705 1498.79 -65.1224 1495.92 -146.647 1376.31C-229.035 1255.42 -260.961 1051.58 -127.367 927.865C23.8962 787.791 272.511 859.196 474.829 800.805C586.252 768.648 678.211 685.77 790.728 662.896Z" fill="#B592FF"/>
</svg>
