<svg width="693" height="982" viewBox="0 0 693 982" fill="none" xmlns="http://www.w3.org/2000/svg">
<path d="M371.793 363.587C462.733 268.492 423.926 74.2427 527.593 -0.220799C630.968 -74.4736 798.107 -87.3003 860.817 12.3253C931.016 123.848 809.686 296.855 806.644 443.099C805.213 511.906 852.487 562.85 847.928 631.97C842.646 712.04 810.402 785.875 779.017 861.921C722.403 999.099 711.888 1188.83 591.431 1253.47C477.644 1314.52 369.798 1199.56 273.918 1132.95C184.84 1071.06 104.971 995.194 62.1073 885.716C18.4998 774.339 -34.52 630.691 32.8173 517.16C103.873 397.36 277.766 461.909 371.793 363.587Z" fill="#FFA07D"/>
</svg>
